<?xml version="1.0" encoding="UTF-8"?>
<svg width="140px" height="30px" viewBox="0 0 140 30" version="1.1" xmlns="http://www.w3.org/2000/svg" xmlns:xlink="http://www.w3.org/1999/xlink">
    <title>编组 11</title>
    <g id="2B2C" stroke="none" stroke-width="1" fill="none" fill-rule="evenodd">
        <g id="画板" transform="translate(-662.000000, -169.000000)" fill="#232323">
            <g id="编组-49" transform="translate(662.000000, 169.000000)">
                <path d="M113.769682,4.78648326e-05 L111.639376,1.28402201 L103.862698,11.4452474 L114.434828,28.6028754 L116.376369,29.9059955 L108.261559,29.909346 L109.439946,28.6311156 L101.087065,15.0722051 L98.766908,18.1042029 L98.7707751,28.6276454 L99.9590718,29.9128162 L93.4262802,29.9155684 L94.6178397,28.6252522 L94.6079302,1.29790281 L93.415283,0.00854387267 L99.9481955,0.00579164478 L98.7608656,1.29084275 L98.7658204,15.0693332 L109.367921,1.21605395 L108.245365,0.00244110648 L109.437408,0.00184279607 L109.437408,0.00579164478 L110.298328,0.0016034719 L113.769682,4.78648326e-05 Z M0,0.00765837327 L0.00120847824,3.21962799 L1.89175183,1.95563741 L6.25411656,1.95336383 L6.26438863,28.6259223 L5.00189142,29.9155206 L11.9362604,29.9127683 L10.6712254,28.6240077 L10.6597448,1.95168856 L15.009058,1.95037228 L16.9186953,3.22453413 L16.9174868,0 L0,0.00765837327 Z M37.7126057,29.9087956 L38.9886378,28.618599 L38.9830788,15.9613422 L26.2737549,15.966368 L26.2799182,28.6236248 L27.5569171,29.9127444 L20.5558402,29.9156163 L21.8317515,28.6251804 L21.8211169,1.29866865 L20.5441179,0.00942937208 L27.5451949,0.00667714419 L26.2691627,1.29699338 L26.2730298,14.0156368 L38.9822329,14.010611 L38.9780032,1.29208723 L37.7008834,0.00272829548 L44.6989392,9.57296652e-05 L43.425324,1.28754007 L43.4366837,28.6168041 L44.7136826,29.906163 L37.7126057,29.9087956 Z M118.953981,29.9151018 L117.603386,29.9155804 L118.953377,28.6307686 L118.942017,1.29384626 L117.584896,0.00448732809 L129.713184,5.92998767e-05 C133.531854,-0.00137611395 136.6287,2.90880573 136.63015,6.49986482 C136.631601,10.0910436 133.537292,13.003499 129.718622,13.0049349 L130.345701,13.0046956 C135.309888,13.002781 139.335571,16.7858977 139.337505,21.4545139 C139.339438,26.1230104 135.316776,29.9091186 130.35271,29.9109136 L123.005767,29.9135461 L118.953981,29.9151018 Z M123.669584,1.95294501 L123.673572,11.7066013 L126.719541,11.7054047 C129.583514,11.7043278 131.904276,9.52025544 131.903188,6.82678163 C131.901979,4.13342748 129.579526,1.9507911 126.715553,1.95174808 L123.669584,1.95294501 Z M123.674418,13.6573326 L123.680219,27.9625756 L127.007643,27.9613789 C131.20795,27.9598233 134.61175,24.7563497 134.61018,20.8059454 C134.608487,16.8556607 131.20215,13.6544607 127.0016,13.6561353 L123.674418,13.6573326 Z M48.9258456,0.00694040077 L67.4085534,0 L67.410487,3.4045059 L65.4018753,1.95132958 L53.9688253,1.95432113 L53.9736592,13.434103 L63.7634205,13.4313508 L65.7053242,12.1551547 L65.7070161,16.6566029 L63.7642665,15.3818427 L53.9743843,15.3851932 L53.9790973,27.9625157 L65.5071338,27.9580882 L67.4318771,26.6944566 L67.4330855,29.9086998 L48.3391294,29.9155206 L49.5041024,28.6252043 L49.5037399,28.6137168 L49.4983017,28.6146741 L49.4875463,1.29629934 L48.9258456,0.00694040077 Z M81.3213283,0.000741904912 C82.1097395,-0.00703613044 82.8599628,0.0482477516 83.5718773,0.167191861 C84.2593806,0.281828136 84.8489971,0.414533385 85.3663466,0.547836945 L85.9539088,0.706867852 L87.1843813,1.06322153 C87.6955676,1.20442279 88.1358162,1.29871651 88.5752189,1.29847719 C89.3702767,1.29823786 90.174519,1.06645241 90.987704,0.603479813 L90.9885499,6.36520908 C90.9228087,6.2461453 90.8541672,6.1287568 90.7823836,6.01244526 L90.51676,5.68564811 C88.5705058,3.36970817 85.943395,1.94991756 83.0530776,1.95111418 C77.0573337,1.95350743 73.373892,8.06943645 73.3767924,15.6118572 C73.3795719,23.1542779 77.0670015,27.9651722 83.0627454,27.962779 C84.9590895,27.9619413 86.7415949,27.4799425 88.292435,26.5825965 C89.336681,25.7916302 90.1646095,24.9038572 90.7758578,23.9185596 L90.9949549,23.5446156 L90.9983386,29.3062252 C90.1849119,28.8438509 89.380428,28.6127834 88.5852493,28.6131424 C88.1459674,28.6133817 87.7058397,28.7080344 87.1947742,28.8495947 L85.9645434,29.2069057 L85.3769813,29.3664152 C84.8597526,29.5001974 84.2702569,29.633501 83.5828745,29.7487356 C83.0134395,29.8441062 82.4194725,29.8991508 81.8009733,29.9137496 L81.3324463,29.9155456 C73.9929954,29.9186557 69.2489933,23.2238015 69.2458498,14.9630493 C69.24283,6.70241682 73.9819983,0.00373345697 81.3213283,0.000741904912" id="形状结合"></path>
            </g>
        </g>
    </g>
</svg>