<?xml version="1.0" standalone="no"?><!DOCTYPE svg PUBLIC "-//W3C//DTD SVG 1.1//EN" "http://www.w3.org/Graphics/SVG/1.1/DTD/svg11.dtd"><svg t="1665569420892" class="icon" viewBox="0 0 1144 1024" version="1.1" xmlns="http://www.w3.org/2000/svg" p-id="2349" xmlns:xlink="http://www.w3.org/1999/xlink" width="53.625" height="48"><path d="M120.470588 0h783.058824a120.470588 120.470588 0 0 1 120.470588 120.470588v452.367059h-84.389647V144.504471A60.235294 60.235294 0 0 0 879.435294 84.329412H144.564706a60.235294 60.235294 0 0 0-60.235294 60.175059V819.2a60.235294 60.235294 0 0 0 60.235294 60.235294h598.317176V963.764706H120.470588a120.470588 120.470588 0 0 1-120.470588-120.470588V120.470588a120.470588 120.470588 0 0 1 120.470588-120.470588z m826.729412 707.041882L985.449412 662.588235l134.866823 122.518589-0.662588 21.925647h-59.331765v0.060235H843.294118v-63.909647h142.637176l-38.731294-36.141177z m-43.851294 126.795294h216.967529v64.030118h-142.637176l38.851765 36.080941-38.309648 44.453647L843.294118 855.883294l0.722823-21.925647h59.392l-0.060235-0.120471z m-509.530353-306.597647l-67.463529-188.53647h-2.409412l-68.005647 188.53647h137.878588z m-28.912941-264.372705L529.227294 692.705882H453.993412l-39.092706-107.760941H234.857412l-39.152941 107.821177H120.470588l164.321883-429.899294h80.112941z m340.931764 289.551058c-54.693647 1.264941-81.799529 20.48-81.799529 57.825883 0 10.842353 4.156235 19.877647 13.793882 27.045647 9.637647 7.228235 21.624471 11.504941 36.683295 11.504941 26.503529 0 48.790588-7.830588 66.861176-22.889412 18.070588-15.661176 27.708235-35.538824 27.708235-59.632941v-15.600941l-63.247059 1.746823z m103.002353-145.046588c19.215059 19.877647 28.852706 48.730353 28.852706 86.678588V692.705882h-63.849411v-40.96c-12.047059 15.661176-27.105882 27.166118-44.453648 35.538824-19.877647 9.035294-43.369412 13.854118-70.475294 13.854118-32.527059 0-57.825882-8.432941-76.498823-24.636236a81.076706 81.076706 0 0 1-28.792471-63.849412c0-34.936471 13.131294-61.982118 40.899765-80.715294 25.238588-18.070588 60.777412-27.648 106.556235-28.852706l68.065883-1.867294v-11.986823c0-40.96-22.347294-60.837647-66.861177-60.837647-19.275294 0-34.334118 3.011765-45.778823 10.24a53.910588 53.910588 0 0 0-25.901177 36.141176l-68.065882-5.421176c6.625882-34.273882 23.491765-59.572706 50.597647-75.233883 22.889412-14.456471 54.211765-21.082353 93.967059-21.082353 45.718588 0 80.052706 11.444706 101.737411 34.334118z" p-id="2350"></path></svg>