<svg t="1670224219362" class="icon" viewBox="0 0 1177 1024" version="1.1" xmlns="http://www.w3.org/2000/svg" p-id="3153" width="48" height="48"><path d="M958.8224 0a102.4 102.4 0 0 1 102.4 102.4v480.0512h-100.608l0.0512-430.6944a51.2 51.2 0 0 0-51.2-51.2h-757.76a51.2 51.2 0 0 0-50.8416 45.2096l-0.3584 5.9904v701.9008a51.2 51.2 0 0 0 45.2608 50.8416l5.9392 0.3584 633.344-0.0512v100.5568H102.4a102.4 102.4 0 0 1-102.4-102.4V102.4a102.4 102.4 0 0 1 102.4-102.4h856.4736z m203.8784 842.8544v72.6016l-147.0464 2.6624 35.2768 24.8832-41.6256 59.392-135.5776-94.8736-13.6192-9.4208v-55.296h302.592z m-149.248-192.7168l135.5264 94.976 13.6704 9.3696v55.2448h-302.592v-72.6016l147.0464-2.6112-35.328-24.8832 41.6768-59.4944z m-275.2-299.4688c46.6944 0 81.1008 11.6736 103.2192 35.0208 18.9952 20.2752 28.8256 49.7152 28.8256 88.4224v202.6496h-60.1088v-44.8512a131.84 131.84 0 0 1-46.08 38.0928c-20.9408 9.8304-45.4656 15.36-73.728 15.36-33.1264 0-58.88-8.6016-77.312-25.1904-20.3264-16.5376-30.1568-38.0416-30.1568-64.4608 0-35.584 14.1312-63.232 42.3424-82.2784 25.8048-18.432 62.72-27.648 109.312-28.8768l71.3216-1.8432v-12.9024c0-44.2368-24.0128-66.304-71.936-66.304-20.224 0-36.7616 3.6864-49.1008 11.008a56.32 56.32 0 0 0-27.5968 39.3216l-64.512-5.5296c6.7584-34.304 23.9104-60.16 50.9952-76.1856 23.3472-14.6944 55.296-21.4528 94.5152-21.4528zM389.2736 238.2848l168.9088 438.4768H486.2976l-41.1136-112.9984H256.6656l-41.1648 112.9984H144.2816l168.9088-438.4768h76.0832z m416.6144 291.7376l-67.0208 1.8432c-59.4944 1.1776-88.9856 22.1184-88.9856 61.44a35.84 35.84 0 0 0 15.36 30.0544c9.8304 7.936 23.3472 12.288 39.936 12.288 27.648 0 50.8928-8.6528 70.656-25.1904 19.5584-16.5888 30.0544-37.4784 30.0544-62.0544v-18.3808zM352.4608 310.1184h-2.4576L276.9408 508.5184h147.968L352.4608 310.1184z" p-id="3154"></path></svg>