<?xml version="1.0" standalone="no"?><!DOCTYPE svg PUBLIC "-//W3C//DTD SVG 1.1//EN" "http://www.w3.org/Graphics/SVG/1.1/DTD/svg11.dtd"><svg t="1665569458591" class="icon" viewBox="0 0 1025 1024" version="1.1" xmlns="http://www.w3.org/2000/svg" p-id="3099" xmlns:xlink="http://www.w3.org/1999/xlink" width="48.046875" height="48"><path d="M605.88672 233.088v-46.464A92.8 92.8 0 0 0 466.43072 106.24a92.8 92.8 0 0 0-46.464 80.384v53.76H51.51872a50.112 50.112 0 1 1 0-100.16h281.216a186.048 186.048 0 0 1 360.32 0h281.28a50.112 50.112 0 1 1 0 100.16H605.88672v-7.296z m232.576 92.864a46.4 46.4 0 0 1 69.76-40.192c14.4 8.32 23.232 23.616 23.232 40.192v563.2a133.696 133.696 0 0 1-133.76 133.568h-569.6a133.696 133.696 0 0 1-133.76-133.632V325.952a46.464 46.464 0 0 1 92.992 0v537.024c0 36.928 29.952 66.816 66.88 66.816h517.376c36.928 0 66.88-29.888 66.88-66.816v-536.96z m-465.024 46.464c25.664 0 46.464 20.8 46.464 46.464v371.584a46.464 46.464 0 0 1-92.928 0V418.88c0-25.664 20.736-46.464 46.464-46.464z m279.04 0c25.6 0 46.464 20.8 46.464 46.464v371.584a46.464 46.464 0 0 1-92.992 0V418.88c0-25.664 20.8-46.464 46.464-46.464z m-46.528-90.304h92.928-92.928z m-279.04 0H419.90272 326.91072z" p-id="3100"></path></svg>