<svg t="1666160448602" class="icon" viewBox="0 0 1024 1024" version="1.1" xmlns="http://www.w3.org/2000/svg" p-id="2559" width="48" height="48"><path d="M645.12 16.384a153.6 153.6 0 0 1 153.6 153.6V368.64h112.64a51.2 51.2 0 0 1 51.2 51.2V972.8a51.2 51.2 0 0 1-51.2 51.2H112.64a51.2 51.2 0 0 1-51.2-51.2V419.84a51.2 51.2 0 0 1 51.2-51.2h112.64V169.984a153.6 153.6 0 0 1 153.6-153.6h266.24z m219.136 450.56H159.744v458.752h704.512V466.944zM512 573.44a81.92 81.92 0 0 1 39.68 153.6c0.8192 3.2256 1.28 6.656 1.28 10.24v40.96a40.96 40.96 0 1 1-81.92 0v-40.96c0-3.584 0.4608-7.0144 1.28-10.2912A81.92 81.92 0 0 1 512 573.44z m0 65.536a16.384 16.384 0 1 0 0 32.768 16.384 16.384 0 0 0 0-32.768z m137.216-524.288H374.784a51.2 51.2 0 0 0-50.8416 45.2096l-0.3584 5.9904V368.64h376.832V165.888a51.2 51.2 0 0 0-51.2-51.2z" p-id="2560"></path></svg>