<svg t="1669974906832" class="icon" viewBox="0 0 1755 1024" version="1.1" xmlns="http://www.w3.org/2000/svg" p-id="3063" width="48" height="48"><path d="M1755.480816 107.966709a110.152199 110.152199 0 0 1-30.134598 76.360488L951.062569 992.256272A101.082562 101.082562 0 0 1 877.774054 1024a101.082562 101.082562 0 0 1-73.14223-31.743728L30.348175 184.327197A111.17619 111.17619 0 0 1 3.578118 80.026377a105.763665 105.763665 0 0 1 73.142231-76.360488 100.497424 100.497424 0 0 1 99.912286 27.940332l701.287703 731.714871L1579.061757 31.606221a99.912286 99.912286 0 0 1 109.274492-19.01698c36.863684 16.530144 61.439473 53.540113 62.902318 95.377468H1755.480816z" p-id="3064"></path></svg>