<svg t="1683600079945" class="icon" viewBox="0 0 1024 1024" version="1.1" xmlns="http://www.w3.org/2000/svg" p-id="4116" width="200" height="200"><path d="M814.545455 0a93.090909 93.090909 0 0 1 93.090909 93.090909v837.818182a93.090909 93.090909 0 0 1-93.090909 93.090909h-605.09091a93.090909 93.090909 0 0 1-93.090909-93.090909V93.090909a93.090909 93.090909 0 0 1 93.090909-93.090909h605.09091z m-1.44291 745.285818H210.897455v184.506182h602.20509v-184.506182zM581.818182 791.272727a46.545455 46.545455 0 1 1 0 93.090909h-139.636364a46.545455 46.545455 0 1 1 0-93.090909h139.636364z m231.330909-697.064727H210.850909v565.201455h602.251636V94.208z" p-id="4117"></path></svg>