<?xml version="1.0" standalone="no"?><!DOCTYPE svg PUBLIC "-//W3C//DTD SVG 1.1//EN" "http://www.w3.org/Graphics/SVG/1.1/DTD/svg11.dtd"><svg t="1665569664862" class="icon" viewBox="0 0 1638 1024" version="1.1" xmlns="http://www.w3.org/2000/svg" p-id="3249" xmlns:xlink="http://www.w3.org/1999/xlink" width="76.78125" height="48"><path d="M819.2 1024C395.0592 1024 51.2 695.5008 51.2 512 51.2 328.4992 395.0592 0 819.2 0c424.1408 0 768 328.4992 768 512 0 183.5008-343.8592 512-768 512z m0-143.36c344.9856 0 624.64-236.544 624.64-368.64S1164.1856 143.36 819.2 143.36C474.2144 143.36 194.56 379.904 194.56 512S474.2144 880.64 819.2 880.64z" p-id="3250"></path><path d="M819.2 819.2C637.44 819.2 490.0864 681.6768 490.0864 512S637.44 204.8 819.2 204.8s329.1136 137.5232 329.1136 307.2S1000.96 819.2 819.2 819.2z m0-143.36c96.9728 0 175.5136-73.3184 175.5136-163.84 0-90.5216-78.5408-163.84-175.5136-163.84S643.6864 421.4784 643.6864 512c0 90.5216 78.5408 163.84 175.5136 163.84z" p-id="3251"></path></svg>