<svg t="1666160418965" class="icon" viewBox="0 0 1675 1024" version="1.1" xmlns="http://www.w3.org/2000/svg" p-id="2559" width="48" height="48"><path d="M837.818182 0c462.661818 0 837.818182 328.517818 837.818182 512S1300.48 1024 837.818182 1024 0 695.482182 0 512 375.156364 0 837.818182 0z m0 111.709091c-401.035636 0-726.109091 256.837818-726.109091 400.290909S436.782545 912.290909 837.818182 912.290909s726.109091-256.837818 726.109091-400.290909S1238.853818 111.709091 837.818182 111.709091z m0 102.4a297.890909 297.890909 0 1 1 0 595.781818 297.890909 297.890909 0 0 1 0-595.781818z m0 111.709091a186.181818 186.181818 0 1 0 0 372.363636 186.181818 186.181818 0 0 0 0-372.363636z" p-id="2560"></path></svg>