<svg t="1669880067540" class="icon" viewBox="0 0 1024 1024" version="1.1" xmlns="http://www.w3.org/2000/svg" p-id="3063" width="48" height="48"><path d="M977.454545 40.96a46.545455 46.545455 0 0 1 46.545455 46.545455v848.98909a46.545455 46.545455 0 0 1-46.545455 46.545455H46.545455a46.545455 46.545455 0 0 1-46.545455-46.545455V87.505455a46.545455 46.545455 0 0 1 46.545455-46.545455h930.90909z m-47.988363 303.057455H94.487273v544.814545h835.025454l-0.046545-544.814545z m-222.952727 106.542545l51.246545 62.370909-324.887273 265.309091-166.632727-171.008 58.042182-56.180364 114.827636 117.853091 267.357091-218.344727z m222.952727-315.392H94.533818L94.487273 245.713455h834.978909V135.168z" p-id="3064"></path></svg>