<svg t="1669881440105" class="icon" viewBox="0 0 1251 1024" version="1.1" xmlns="http://www.w3.org/2000/svg" p-id="3063" width="48" height="48"><path d="M1194.666667 11.377778a56.888889 56.888889 0 0 1 56.888889 56.888889v887.466666a56.888889 56.888889 0 0 1-56.888889 56.888889H56.888889a56.888889 56.888889 0 0 1-56.888889-56.888889V68.266667a56.888889 56.888889 0 0 1 56.888889-56.888889h1137.777778z m-63.260445 120.149333H120.149333v760.945778h1011.256889V131.527111zM396.856889 524.515556c74.638222 0 149.276444 12.174222 223.914667 36.408888l-25.031112 170.097778h-400.497777l-25.031111-170.097778a745.699556 745.699556 0 0 1 226.645333-36.408888z m694.499555 115.427555v88.974222h-400.497777V640h400.497777zM1002.382222 461.937778v88.974222h-311.523555V461.937778h311.523555zM395.491556 261.688889a112.64 112.64 0 1 1 0 225.28 112.64 112.64 0 0 1 0-225.28z" p-id="3064"></path></svg>