<?xml version="1.0" standalone="no"?><!DOCTYPE svg PUBLIC "-//W3C//DTD SVG 1.1//EN" "http://www.w3.org/Graphics/SVG/1.1/DTD/svg11.dtd"><svg t="1665569451304" class="icon" viewBox="0 0 1137 1024" version="1.1" xmlns="http://www.w3.org/2000/svg" p-id="2949" xmlns:xlink="http://www.w3.org/1999/xlink" width="53.296875" height="48"><path d="M680.6528 612.864v45.2096H138.5472V364.4416h542.1056V612.864z m-67.7376-22.528v-45.2096h-158.1568v45.1584h158.1568z m-225.8944 0v-45.2096h-180.736v45.1584h180.736zM612.864 432.128h-158.1568v45.2096h158.1568V432.128z m-406.6304 0v45.2096h180.736V432.128h-180.736z m293.6832-333.5168H147.4048a51.2 51.2 0 0 0-51.2 51.2v609.792a51.2 51.2 0 0 0 51.2 51.2h575.5904V319.2832h-223.0272V98.6624z m0-47.7184v-0.0512L474.624 25.6h95.3856L793.6 251.4944v93.0304l-25.344-25.2928 25.344 25.344v436.992a102.4 102.4 0 0 1-102.4 102.4h-563.2a102.4 102.4 0 0 1-102.4-102.4V128a102.4 102.4 0 0 1 102.4-102.4h346.624l25.344 25.344z m67.7376 67.6864v132.864h132.8128l-132.8128-132.864z" p-id="2950"></path></svg>