<svg t="1666160363889" class="icon" viewBox="0 0 1024 1024" version="1.1" xmlns="http://www.w3.org/2000/svg" p-id="2559" width="48" height="48"><path d="M512 0a245.76 245.76 0 1 1 0 491.52A245.76 245.76 0 0 1 512 0z m0 98.304a147.456 147.456 0 1 0 0 294.912 147.456 147.456 0 0 0 0-294.912z m3.072 475.136c162.816 0 325.632 26.5216 488.448 79.5136L948.8896 1024H75.1104L20.48 652.9536c166.912-52.992 331.7248-79.5136 494.592-79.5136z m-4.7104 99.84c-131.584 0-260.352 14.8992-386.1504 44.8l30.5152 209.152h706.3552l29.6448-209.152a1592.832 1592.832 0 0 0-380.416-44.8z" p-id="2560"></path></svg>