<svg t="1669795078872" class="icon" viewBox="0 0 1024 1024" version="1.1" xmlns="http://www.w3.org/2000/svg" p-id="3055" width="48" height="48"><path d="M276.764444 119.637333l45.511112 78.734223A391.566222 391.566222 0 0 0 119.466667 541.411556c0 216.348444 175.786667 391.736889 392.533333 391.736888 216.746667 0 392.533333-175.388444 392.533333-391.736888a391.452444 391.452444 0 0 0-194.56-338.375112l45.511111-78.677333a482.247111 482.247111 0 0 1 240.071112 416.995556C995.555556 807.992889 779.036444 1024 512 1024S28.444444 807.936 28.444444 541.411556a482.304 482.304 0 0 1 248.32-421.774223zM557.511111 28.444444v625.777778H466.488889V28.444444h91.022222z" p-id="3056"></path></svg>