<svg t="1666160335859" class="icon" viewBox="0 0 1024 1024" version="1.1" xmlns="http://www.w3.org/2000/svg" p-id="2559" width="48" height="48"><path d="M874.6496 359.936c-1.4848 1.4848-166.656 198.7072-363.008 198.7072C321.1264 558.6432 148.48 359.936 146.9952 358.4c-0.256-0.256-44.7488 39.0144-44.6464 39.168 2.9696 4.5056 38.7072 45.1584 95.232 90.3168l-75.8784 79.8208c-0.4096 0.4096 41.728 40.96 41.8816 40.8064l80.128-84.48c38.7072 27.136 84.7872 52.736 135.424 70.7584l-31.232 106.9056c-0.3072 1.0752 57.856 15.872 58.0096 15.0528l31.232-106.9056c23.808 4.5568 49.152 7.5264 74.3936 7.5264 25.2928 0 50.5856-2.9696 74.3936-7.5264L617.984 716.8s55.9104-17.8176 55.8592-18.0736l-31.232-105.3696a577.536 577.536 0 0 0 135.3728-70.7584l80.384 84.3264c0.1024 0.1024 44.0832-41.1136 43.9296-41.2672L825.5488 484.864A596.224 596.224 0 0 0 921.6 396.8512s-46.8992-37.0176-46.9504-36.9664z" p-id="2560"></path></svg>